<svg width="42" height="40" viewBox="0 0 42 40" fill="none" xmlns="http://www.w3.org/2000/svg">
<path d="M22 16L19.2 13.2L22.35 10H14V6H22.35L19.15 2.8L22 0L30 8L22 16ZM12 40C10.9 40 9.95833 39.6083 9.175 38.825C8.39167 38.0417 8 37.1 8 36C8 34.9 8.39167 33.9583 9.175 33.175C9.95833 32.3917 10.9 32 12 32C13.1 32 14.0417 32.3917 14.825 33.175C15.6083 33.9583 16 34.9 16 36C16 37.1 15.6083 38.0417 14.825 38.825C14.0417 39.6083 13.1 40 12 40ZM32 40C30.9 40 29.9583 39.6083 29.175 38.825C28.3917 38.0417 28 37.1 28 36C28 34.9 28.3917 33.9583 29.175 33.175C29.9583 32.3917 30.9 32 32 32C33.1 32 34.0417 32.3917 34.825 33.175C35.6083 33.9583 36 34.9 36 36C36 37.1 35.6083 38.0417 34.825 38.825C34.0417 39.6083 33.1 40 32 40ZM0 4V0H6.55L15.05 18H29.05L36.85 4H41.4L32.6 19.9C32.2333 20.5667 31.7417 21.0833 31.125 21.45C30.5083 21.8167 29.8333 22 29.1 22H14.2L12 26H36V30H12C10.5 30 9.35833 29.35 8.575 28.05C7.79167 26.75 7.76667 25.4333 8.5 24.1L11.2 19.2L4 4H0Z" fill="white"/>
</svg>
